<svg width="40" height="39" viewBox="0 0 40 39" fill="none" xmlns="http://www.w3.org/2000/svg">
<rect width="40" height="39" rx="18.5" fill="white" fill-opacity="0.04"/>
<g clip-path="url(#clip0_64_1062)">
<path d="M20 37.0001C29.9411 37.0001 38 29.165 38 19.5001C38 9.83508 29.9411 2.00006 20 2.00006C10.0589 2.00006 2 9.83508 2 19.5001C2 29.165 10.0589 37.0001 20 37.0001Z" fill="#3C5A9A"/>
<path d="M25.8528 7.37158H21.8654C19.4991 7.37158 16.8671 8.33916 16.8671 11.6739C16.8787 12.8359 16.8671 13.9487 16.8671 15.2011H14.1296V19.4362H16.9518V31.6284H22.1377V19.3557H25.5606L25.8703 15.1892H22.0484C22.0484 15.1892 22.0569 13.3357 22.0484 12.7975C22.0484 11.4797 23.4588 11.5551 23.5436 11.5551C24.2148 11.5551 25.5198 11.557 25.8548 11.5551V7.37158H25.8528Z" fill="white"/>
</g>
<defs>
<clipPath id="clip0_64_1062">
<rect width="36" height="35" fill="white" transform="translate(2 2)"/>
</clipPath>
</defs>
</svg>
