<svg width="40" height="39" viewBox="0 0 40 39" fill="none" xmlns="http://www.w3.org/2000/svg">
<rect width="40" height="39" rx="18.5" fill="white" fill-opacity="0.04"/>
<g clip-path="url(#clip0_64_1067)">
<path d="M35.9843 19.8274C35.9843 18.3935 35.872 17.3471 35.629 16.262H19.8287V22.734H29.1032C28.9162 24.3424 27.9065 26.7646 25.6626 28.3923L25.6312 28.6089L30.627 32.6197L30.9731 32.6555C34.1518 29.6131 35.9843 25.1369 35.9843 19.8274Z" fill="#4285F4"/>
<path d="M19.8287 36.8797C24.3724 36.8797 28.1869 35.3295 30.9731 32.6554L25.6626 28.3922C24.2416 29.4193 22.3343 30.1362 19.8287 30.1362C15.3785 30.1362 11.6014 27.094 10.255 22.8891L10.0576 22.9065L4.86298 27.0727L4.79504 27.2684C7.5624 32.9654 13.2468 36.8797 19.8287 36.8797Z" fill="#34A853"/>
<path d="M10.255 22.8891C9.89971 21.804 9.6941 20.6413 9.6941 19.4399C9.6941 18.2384 9.89971 17.0758 10.2363 15.9907L10.2269 15.7596L4.96711 11.5264L4.79502 11.6113C3.65446 13.9754 3 16.6302 3 19.4399C3 22.2497 3.65446 24.9043 4.79502 27.2684L10.255 22.8891Z" fill="#FBBC05"/>
<path d="M19.8287 8.74338C22.9887 8.74338 25.1203 10.1579 26.3358 11.3401L31.0852 6.53437C28.1683 3.72462 24.3724 2 19.8287 2C13.2468 2 7.5624 5.91426 4.79504 11.6112L10.2363 15.9907C11.6014 11.7857 15.3785 8.74338 19.8287 8.74338Z" fill="#EB4335"/>
</g>
<defs>
<clipPath id="clip0_64_1067">
<rect width="33" height="35" fill="white" transform="translate(3 2)"/>
</clipPath>
</defs>
</svg>
