<svg width="37" height="37" viewBox="0 0 37 37" fill="none" xmlns="http://www.w3.org/2000/svg">
<path d="M18.5 2C9.3873 2 2 9.3873 2 18.5C2 27.6126 9.3873 35 18.5 35C27.6126 35 35 27.6126 35 18.5C35 9.3873 27.6126 2 18.5 2Z" stroke="white" stroke-width="2.09703" stroke-linecap="round" stroke-linejoin="round"/>
<path d="M5.74707 28.9704C5.74707 28.9704 9.42495 24.275 18.4999 24.275C27.5749 24.275 31.2529 28.9704 31.2529 28.9704" stroke="white" stroke-width="2.09703" stroke-linecap="round" stroke-linejoin="round"/>
<path d="M18.4999 18.5C21.2338 18.5 23.4499 16.2839 23.4499 13.55C23.4499 10.8162 21.2338 8.60004 18.4999 8.60004C15.766 8.60004 13.5499 10.8162 13.5499 13.55C13.5499 16.2839 15.766 18.5 18.4999 18.5Z" stroke="white" stroke-width="2.09703" stroke-linecap="round" stroke-linejoin="round"/>
</svg>
